<?xml version="1.0" encoding="UTF-8"?>
<!DOCTYPE svg PUBLIC "-//W3C//DTD SVG 1.1//EN" "http://www.w3.org/Graphics/SVG/1.1/DTD/svg11.dtd">
<!-- Creator: CorelDRAW 2018 (64-Bit) -->
<svg xmlns="http://www.w3.org/2000/svg" xml:space="preserve" width="400mm" height="90mm" version="1.1" style="shape-rendering:geometricPrecision; text-rendering:geometricPrecision; image-rendering:optimizeQuality; fill-rule:evenodd; clip-rule:evenodd"
viewBox="0 0 40000 9000"
 xmlns:xlink="http://www.w3.org/1999/xlink">
 <defs>
  <style type="text/css">
   <![CDATA[
    .str2 {stroke:#119DFF;stroke-width:139.48;stroke-miterlimit:22.9256}
    .str1 {stroke:#119DFF;stroke-width:150;stroke-miterlimit:22.9256}
    .str0 {stroke:#119DFF;stroke-width:150;stroke-miterlimit:22.9256;stroke-dasharray:300.000000 450.000000}
    .fil0 {fill:none;fill-rule:nonzero}
    .fil1 {fill:#119DFF;fill-rule:nonzero}
   ]]>
  </style>
 </defs>
 <g id="Слой_x0020_1">
  <metadata id="CorelCorpID_0Corel-Layer"/>
  <g id="Logo">
   <g id="Lines">
    <line id="Horiontal" class="fil0 str0" x1="373.1" y1="4468.41" x2="8592.69" y2= "4468.41" />
    <line id="Vertical" class="fil0 str0" x1="4482.91" y1="358.58" x2="4482.9" y2= "8578.23" />
    <path id="circle" class="fil0 str1" d="M8592.69 4468.41c0,-1468.24 -783.28,-2825.03 -2054.9,-3559.14 -1271.62,-734.24 -2838.17,-734.24 -4109.8,0 -1271.62,734.11 -2054.89,2090.9 -2054.89,3559.14 0,1468.24 783.27,2825.03 2054.89,3559.15 1271.63,734.23 2838.18,734.23 4109.8,0 1271.62,-734.12 2054.9,-2090.91 2054.9,-3559.15zm0 0z"/>
   </g>
   <g id="Dots-constellation_x0020_compass">
    <path id="dot2" class="fil1" d="M6041.36 5673.39c0,172.73 -104.12,329.22 -264.05,394.97 -159.92,66.36 -343.77,30.12 -466.46,-92.43 -121.96,-122.69 -158.75,-306.55 -92.43,-466.47 66.35,-159.88 222.23,-264.04 395.01,-264.04 113.66,0 222.36,45.08 302.54,125.39 80.87,80.18 125.39,188.87 125.39,302.58zm0 0z"/>
    <path id="dot1" class="fil0 str2" d="M4531.92 943.99c0,173.31 -104.16,329.34 -264.04,395.14 -159.93,66.31 -343.78,30.08 -466.46,-92.61 -121.96,-122.51 -158.75,-306.42 -92.44,-466.3 66.31,-159.92 222.23,-264.2 394.97,-264.2 113.71,0 222.4,45.24 302.59,125.39 80.86,80.3 125.38,188.87 125.38,302.58zm0 0z"/>
    <path id="dot3" class="fil1" d="M6971.06 7360.1c0,172.73 -104.13,329.22 -264.05,394.97 -159.92,66.36 -343.78,30.12 -466.47,-92.43 -121.95,-122.69 -158.75,-306.55 -92.43,-466.47 66.35,-159.88 222.23,-264.04 395.01,-264.04 113.67,0 222.36,45.08 302.54,125.39 80.87,80.18 125.4,188.87 125.4,302.58zm0 0z"/>
   </g>
  </g>
  <g id="_1507824909712">
   <path id="PM_x0020_tools" class="fil1" d="M9855.34 3128.46l0 1698.63 -439.21 0 0 -3783.54 792.87 0c277.81,0 482.43,14.99 612.95,44.09 131.41,29.11 245.18,77.61 341.32,144.64 120.82,85.55 215.19,203.73 283.1,353.66 67.91,149.93 102.31,315.74 102.31,498.3 0,183.45 -34.4,349.25 -102.31,499.18 -67.91,149.93 -162.28,268.11 -283.1,353.66 -96.14,68.79 -209.91,118.18 -339.55,147.29 -130.53,29.1 -335.14,44.09 -614.72,44.09l-126.12 0 -227.54 0zm0 -407.45l227.54 0c385.41,0 645.59,-44.98 778.76,-135.82 133.18,-89.96 200.2,-247.83 200.2,-473.61 0,-240.77 -68.79,-410.1 -205.49,-508 -136.7,-97.89 -395.11,-147.28 -773.47,-147.28l-227.54 0 0 1264.71z"/>
   <polygon id="1" class="fil1" points="13865.55,4975.26 12689.92,2257.1 12214.55,4827.09 11775.34,4827.09 12542.63,895.38 13865.55,4023.64 15188.47,895.38 15955.76,4827.09 15516.55,4827.09 15035.89,2257.1 "/>
   <path id="2" class="fil1" d="M19414.75 3652.34c0,249.59 83.78,461.26 250.47,634.12 167.57,173.74 370.41,260.17 607.66,260.17 236.36,0 437.44,-86.43 603.25,-260.17 164.92,-172.86 247.82,-384.53 247.82,-634.12 0,-249.59 -82.9,-461.26 -247.82,-634.12 -165.81,-173.74 -366.89,-260.17 -603.25,-260.17 -239.01,0 -441.86,86.43 -608.54,260.17 -166.69,172.86 -249.59,384.53 -249.59,634.12zm-428.63 -1.76c0,-173.75 31.75,-337.79 95.25,-492.13 64.38,-153.46 156.99,-291.04 279.58,-411.87 122.59,-120.82 261.05,-212.55 416.27,-275.17 155.23,-62.61 320.15,-94.36 496.54,-94.36 171.98,0 335.14,31.75 489.48,95.25 154.34,64.38 293.69,156.98 419.81,279.57 122.59,119.07 215.19,254.89 279.57,409.23 63.5,154.34 95.25,317.5 95.25,489.48 0,172.86 -31.75,335.13 -95.25,487.71 -64.38,152.58 -156.98,288.4 -279.57,406.58 -126.12,124.35 -266.35,218.72 -422.46,284.87 -156.1,65.26 -318.38,97.89 -486.83,97.89 -174.63,0 -339.55,-32.63 -495.65,-97.01 -156.11,-64.38 -294.57,-156.99 -417.16,-277.81 -122.59,-124.36 -215.2,-261.94 -279.58,-413.64 -63.5,-151.69 -95.25,-313.97 -95.25,-488.59z"/>
   <path id="3" class="fil1" d="M22424.83 3652.34c0,249.59 83.78,461.26 250.47,634.12 167.57,173.74 370.41,260.17 607.66,260.17 236.36,0 437.44,-86.43 603.25,-260.17 164.92,-172.86 247.82,-384.53 247.82,-634.12 0,-249.59 -82.9,-461.26 -247.82,-634.12 -165.81,-173.74 -366.89,-260.17 -603.25,-260.17 -239.01,0 -441.86,86.43 -608.54,260.17 -166.69,172.86 -249.59,384.53 -249.59,634.12zm-428.63 -1.76c0,-173.75 31.75,-337.79 95.25,-492.13 64.38,-153.46 156.99,-291.04 279.58,-411.87 122.59,-120.82 261.05,-212.55 416.27,-275.17 155.23,-62.61 320.15,-94.36 496.54,-94.36 171.98,0 335.14,31.75 489.48,95.25 154.34,64.38 293.69,156.98 419.81,279.57 122.59,119.07 215.19,254.89 279.57,409.23 63.5,154.34 95.25,317.5 95.25,489.48 0,172.86 -31.75,335.13 -95.25,487.71 -64.38,152.58 -156.98,288.4 -279.57,406.58 -126.12,124.35 -266.35,218.72 -422.46,284.87 -156.1,65.26 -318.38,97.89 -486.83,97.89 -174.63,0 -339.55,-32.63 -495.65,-97.01 -156.11,-64.38 -294.57,-156.99 -417.16,-277.81 -122.59,-124.36 -215.2,-261.94 -279.58,-413.64 -63.5,-151.69 -95.25,-313.97 -95.25,-488.59z"/>
   <polygon id="4" class="fil1" points="25217.95,4827.09 25217.95,821.3 25630.7,821.3 25630.7,4827.09 "/>
   <path id="5" class="fil1" d="M26228.66 4429.33l346.6 -231.95c65.27,125.24 147.29,218.72 247.83,281.34 99.66,62.62 217.84,94.37 353.66,94.37 132.29,0 239.89,-32.63 321.91,-97.9 82.02,-65.26 122.59,-151.69 122.59,-258.41 0,-82.02 -28.22,-150.81 -83.78,-206.37 -56.45,-54.68 -152.58,-105.83 -288.4,-151.7l-67.03 -23.81c-575.03,-197.55 -862.54,-446.26 -862.54,-744.36 0,-209.9 77.61,-381.88 231.95,-514.17 155.22,-133.18 356.31,-199.32 604.13,-199.32 205.5,0 381,40.57 527.41,122.59 146.4,82.02 251.35,197.55 314.85,347.48l-327.2 201.97c-48.51,-108.48 -119.94,-192.27 -213.43,-250.47 -94.37,-59.09 -202.85,-88.2 -327.2,-88.2 -119.06,0 -216.08,33.52 -291.04,99.66 -74.97,66.15 -112.01,150.81 -112.01,254.88 0,144.64 156.98,266.35 470.08,364.25 59.09,19.4 105.83,33.51 140.22,44.09 255.77,82.91 434.8,177.28 535.35,283.11 100.54,105.83 150.81,245.18 150.81,419.8 0,223.14 -79.38,404.82 -239.01,543.28 -158.75,138.47 -366.89,208.14 -623.53,208.14 -220.49,0 -407.46,-41.45 -561.8,-124.35 -153.46,-82.02 -277.82,-207.26 -370.42,-373.95z"/>
   <polygon id="6" class="fil1" points="17198.42,4827.09 17198.42,1472.17 16129.51,1472.17 16129.51,1043.55 18717.13,1043.55 18717.13,1472.17 17653.51,1472.17 17653.51,4827.09 "/>
   <path id="for_x0020_paleomagnetism_x0020_researchers" class="fil1" d="M9433.01 7449.63l0 -839.89 -185.93 0 0 -137.8 185.93 0 0 -282.88c0,-162.22 20.17,-271.94 60.89,-329.17 40.35,-57.24 113.14,-85.67 218,-85.67 25.95,0 50.81,1.82 74.59,5.47 23.42,3.28 46.12,9.11 68.1,16.77l0 172.79c-20.9,-12.4 -42.16,-21.15 -63.78,-26.98 -21.26,-5.47 -43.24,-8.38 -65.94,-8.38 -48.29,0 -81.8,15.67 -100.17,47.02 -18.02,31.35 -27.38,108.27 -27.38,230.39l0 260.64 257.27 0 0 137.8 -252.95 0 0 839.89 -168.63 0z"/>
   <path id="1" class="fil1" d="M10111.87 6964.07c0,103.16 34.23,190.65 102.34,262.1 68.46,71.81 151.33,107.54 248.26,107.54 96.57,0 178.72,-35.73 246.47,-107.54 67.37,-71.45 101.25,-158.94 101.25,-262.1 0,-103.17 -33.88,-190.66 -101.25,-262.1 -67.75,-71.82 -149.9,-107.54 -246.47,-107.54 -97.65,0 -180.53,35.72 -248.63,107.54 -68.1,71.44 -101.97,158.93 -101.97,262.1zm-175.12 -0.73c0,-71.82 12.97,-139.62 38.91,-203.41 26.3,-63.43 64.14,-120.3 114.23,-170.24 50.08,-49.94 106.65,-87.86 170.07,-113.74 63.42,-25.88 130.8,-39 202.87,-39 70.26,0 136.92,13.12 199.98,39.37 63.06,26.61 120,64.88 171.52,115.56 50.08,49.21 87.92,105.35 114.22,169.14 25.95,63.79 38.92,131.23 38.92,202.32 0,71.45 -12.97,138.52 -38.92,201.59 -26.3,63.06 -64.14,119.2 -114.22,168.05 -51.52,51.4 -108.82,90.4 -172.6,117.74 -63.77,26.98 -130.08,40.47 -198.9,40.47 -71.34,0 -138.73,-13.49 -202.5,-40.1 -63.79,-26.61 -120.36,-64.89 -170.44,-114.83 -50.09,-51.4 -87.93,-108.27 -114.23,-170.97 -25.94,-62.7 -38.91,-129.77 -38.91,-201.95z"/>
   <path id="2" class="fil1" d="M11246.54 7449.63l0 -977.69 147.38 0 0 203.78c44.31,-84.94 91.52,-145.45 141.61,-181.91 50.08,-36.45 110.98,-54.68 182.69,-54.68 19.81,0 38.91,1.46 57.29,4.74 18.02,3.28 36.39,8.02 54.77,14.22l-54.77 151.65c-19.1,-6.56 -37.12,-11.3 -54.05,-14.58 -16.93,-3.28 -33.16,-4.74 -48.64,-4.74 -87.21,0 -152.79,31.71 -196.39,95.51 -43.59,63.79 -65.58,159.66 -65.58,287.62l0 476.08 -164.31 0z"/>
   <path id="3" class="fil1" d="M12801 6964.07c0,109.72 29.9,197.58 89.73,263.92 59.81,65.98 139.08,99.16 237.81,99.16 96.21,0 172.24,-30.26 227.36,-90.77 55.14,-60.52 82.89,-144.36 82.89,-251.9 0,-120.3 -27.75,-214.71 -82.89,-283.24 -55.12,-68.17 -132.23,-102.44 -230.6,-102.44 -100.9,0 -179.8,32.45 -237.82,97.33 -57.65,64.53 -86.48,153.84 -86.48,267.94zm-159.99 962.37l0 -1454.5 157.83 0 0 184.46c37.47,-70.72 86.83,-125.04 147.73,-162.59 61.26,-37.91 129.72,-56.86 205.03,-56.86 139.45,0 251.15,48.12 335.47,144.35 84.67,95.88 126.83,223.46 126.83,382.04 0,161.85 -41.43,290.17 -123.95,385.31 -82.87,95.15 -193.49,142.54 -332.22,142.54 -79.28,0 -148.81,-18.23 -207.91,-55.05 -59.09,-36.45 -107.02,-91.13 -144.5,-163.31l0 653.61 -164.31 0z"/>
   <path id="4" class="fil1" d="M14616.7 6970.63c0,-110.46 -29.9,-199.4 -89.35,-266.48 -59.46,-67.44 -136.93,-100.97 -232.78,-100.97 -99.09,0 -176.56,30.98 -232.05,92.95 -55.85,61.97 -83.6,148.37 -83.6,259.55 0,118.11 28.11,209.25 83.96,273.04 55.85,64.16 135.49,96.24 238.18,96.24 98.37,0 175.84,-30.99 231.69,-93.32 55.85,-62.34 83.95,-149.46 83.95,-261.01zm160 -498.69l0 977.69 -160 0 0 -177.16c-38.55,71.08 -88.28,125.4 -148.45,162.58 -60.17,37.55 -127.55,56.14 -202.14,56.14 -138.37,0 -250.43,-48.12 -335.11,-144.72 -84.68,-96.61 -127.2,-224.19 -127.2,-383.13 0,-160.76 41.07,-288.71 123.59,-383.86 82.16,-95.14 192.42,-142.53 330.42,-142.53 80.72,0 150.98,18.22 210.44,55.04 59.45,36.82 107.74,91.87 144.13,164.41l0 -184.46 164.32 0z"/>
   <polygon id="5" class="fil1" points="15115.76,7449.63 15115.76,5793.9 15284.4,5793.9 15284.4,7449.63 "/>
   <path id="6" class="fil1" d="M16316.01 6850.33c-5.76,-86.03 -33.86,-152.37 -85.03,-199.04 -50.81,-46.66 -120.72,-69.99 -209.35,-69.99 -80.36,0 -147.38,24.43 -200.71,73.28 -53.69,48.48 -84.68,113.73 -92.96,195.75l588.05 0zm177.28 135.61l-765.33 0 0 14.95c0,104.62 29.54,189.19 88.63,253.71 59.1,64.53 136.21,96.61 231.34,96.61 64.5,0 123.23,-17.5 175.12,-52.86 52.25,-35 98.37,-88.22 138.36,-159.31l125.4 85.31c-48.29,88.21 -110.26,154.92 -185.56,199.76 -75.32,44.84 -162.52,67.08 -261.97,67.08 -147.01,0 -265.92,-49.22 -356.72,-147.28 -90.81,-98.42 -136.21,-227.47 -136.21,-386.77 0,-153.1 45.04,-278.51 135.12,-376.2 90.09,-97.33 205.75,-146.18 347.37,-146.18 142.68,0 255.83,46.3 339.42,138.89 83.24,92.59 125.03,219.08 125.03,379.12l0 33.17z"/>
   <path id="7" class="fil1" d="M16839.58 6964.07c0,103.16 34.23,190.65 102.33,262.1 68.47,71.81 151.34,107.54 248.27,107.54 96.57,0 178.72,-35.73 246.47,-107.54 67.37,-71.45 101.25,-158.94 101.25,-262.1 0,-103.17 -33.88,-190.66 -101.25,-262.1 -67.75,-71.82 -149.9,-107.54 -246.47,-107.54 -97.65,0 -180.53,35.72 -248.63,107.54 -68.11,71.44 -101.97,158.93 -101.97,262.1zm-175.13 -0.73c0,-71.82 12.98,-139.62 38.92,-203.41 26.3,-63.43 64.14,-120.3 114.23,-170.24 50.08,-49.94 106.65,-87.86 170.07,-113.74 63.42,-25.88 130.8,-39 202.87,-39 70.26,0 136.92,13.12 199.98,39.37 63.06,26.61 120,64.88 171.51,115.56 50.09,49.21 87.93,105.35 114.23,169.14 25.95,63.79 38.92,131.23 38.92,202.32 0,71.45 -12.97,138.52 -38.92,201.59 -26.3,63.06 -64.14,119.2 -114.23,168.05 -51.51,51.4 -108.82,90.4 -172.59,117.74 -63.78,26.98 -130.08,40.47 -198.9,40.47 -71.35,0 -138.73,-13.49 -202.5,-40.1 -63.79,-26.61 -120.36,-64.89 -170.44,-114.83 -50.09,-51.4 -87.93,-108.27 -114.23,-170.97 -25.94,-62.7 -38.92,-129.77 -38.92,-201.95z"/>
   <path id="8" class="fil1" d="M19316.84 7449.63l0 -575.6c0,-99.16 -19.82,-172.43 -59.09,-220.55 -39.28,-48.12 -99.82,-72.18 -181.25,-72.18 -44.32,0 -85.4,9.12 -122.87,27.34 -37.48,18.23 -69.54,43.75 -95.49,77.29 -18.74,25.51 -32.43,55.41 -41.08,89.67 -8.28,34.27 -12.61,90.41 -12.61,168.78l0 505.25 -159.98 0 0 -575.6c0,-99.16 -19.82,-172.43 -59.1,-220.55 -39.28,-48.12 -99.81,-72.18 -181.25,-72.18 -44.32,0 -85.76,9.12 -123.95,27.34 -38.19,18.23 -70.26,43.75 -96.56,77.29 -18.02,25.15 -31.36,53.95 -39.28,86.39 -8.29,32.81 -12.25,90.41 -12.25,172.06l0 505.25 -159.99 0 0 -977.69 162.14 0 0 150.92c40.01,-62.7 87.93,-109.36 143.42,-139.98 55.49,-30.62 119.63,-45.93 192.06,-45.93 78.18,0 144.85,16.77 199.62,50.67 54.77,33.9 96.2,83.48 124.67,148 41.44,-66.71 90.44,-116.65 147.01,-149.46 56.94,-32.81 122.51,-49.21 197.1,-49.21 107.74,0 191.7,30.62 252.24,91.86 60.53,61.24 90.8,146.54 90.8,255.54l0 665.28 -164.31 0z"/>
   <path id="9" class="fil1" d="M20545.2 6970.63c0,-110.46 -29.9,-199.4 -89.35,-266.48 -59.46,-67.44 -136.93,-100.97 -232.78,-100.97 -99.09,0 -176.56,30.98 -232.05,92.95 -55.85,61.97 -83.6,148.37 -83.6,259.55 0,118.11 28.11,209.25 83.96,273.04 55.85,64.16 135.49,96.24 238.18,96.24 98.37,0 175.84,-30.99 231.69,-93.32 55.85,-62.34 83.95,-149.46 83.95,-261.01zm160 -498.69l0 977.69 -160 0 0 -177.16c-38.55,71.08 -88.28,125.4 -148.45,162.58 -60.17,37.55 -127.55,56.14 -202.14,56.14 -138.37,0 -250.43,-48.12 -335.11,-144.72 -84.68,-96.61 -127.2,-224.19 -127.2,-383.13 0,-160.76 41.08,-288.71 123.59,-383.86 82.16,-95.14 192.43,-142.53 330.42,-142.53 80.72,0 150.98,18.22 210.44,55.04 59.45,36.82 107.74,91.87 144.13,164.41l0 -184.46 164.32 0z"/>
   <path id="10" class="fil1" d="M21775 6964.07c0,-109.73 -29.54,-197.95 -88.63,-265.02 -59.46,-66.71 -136.93,-100.25 -233.49,-100.25 -99.1,0 -176.57,30.99 -232.42,92.96 -55.49,61.97 -83.24,148.36 -83.24,259.55 0,118.11 28.11,209.24 83.96,273.04 55.85,64.15 135.12,96.23 238.18,96.23 98.37,0 175.84,-31.35 231.69,-94.41 55.85,-63.07 83.95,-150.55 83.95,-262.1zm160 -492.13l0 960.56c0,106.08 -7.21,181.54 -21.27,226.74 -14.05,44.84 -37.11,84.94 -69.54,120.66 -45.04,49.21 -100.17,86.03 -165.39,110.09 -64.86,24.42 -139.81,36.45 -224.13,36.45 -146.65,0 -260.51,-33.9 -342.67,-101.7 -82.15,-67.81 -124.67,-163.68 -128.28,-287.62l185.93 0 0 12.76c0,73.63 24.86,130.14 74.95,170.24 50.09,39.73 120.71,59.78 212.24,59.78 66.3,0 122.87,-10.94 169.71,-32.44 46.84,-21.88 82.51,-54.32 107.02,-96.97 14.78,-24.06 25.58,-52.49 31.71,-84.57 6.48,-32.08 9.72,-78.01 9.72,-137.8l0 -76.91 0 -87.13c-37.47,69.63 -86.48,122.85 -146.64,160.4 -60.55,37.18 -128.64,55.77 -203.95,55.77 -138.73,0 -250.43,-47.75 -335.11,-143.26 -84.68,-95.15 -127.19,-222 -127.19,-379.85 0,-159.67 41.07,-286.16 123.58,-379.85 82.16,-93.68 192.43,-140.34 330.43,-140.34 79.99,0 150.62,18.22 211.15,55.04 60.53,36.82 108.1,91.14 143.42,162.22l0 -182.27 164.31 0z"/>
   <path id="11" class="fil1" d="M22269.74 7449.63l0 -977.69 162.15 0 0 150.92c41.44,-62.7 91.53,-109.36 149.89,-139.98 58.38,-30.62 126.12,-45.93 202.51,-45.93 114.23,0 203.23,30.62 267,91.86 64.14,61.24 96.21,146.54 96.21,255.54l0 665.28 -168.63 0 0 -575.6c0,-99.16 -20.54,-172.43 -61.61,-220.55 -41.45,-48.12 -104.86,-72.18 -190.62,-72.18 -49.37,0 -94.4,9.12 -134.76,27.34 -40.36,18.23 -73.87,43.75 -100.89,77.29 -20.19,25.51 -34.96,55.04 -43.61,87.48 -9,32.81 -13.33,89.68 -13.33,170.97l0 505.25 -164.31 0z"/>
   <path id="12" class="fil1" d="M24159.67 6850.33c-5.76,-86.03 -33.86,-152.37 -85.04,-199.04 -50.8,-46.66 -120.71,-69.99 -209.34,-69.99 -80.36,0 -147.38,24.43 -200.71,73.28 -53.69,48.48 -84.68,113.73 -92.96,195.75l588.05 0zm177.28 135.61l-765.33 0 0 14.95c0,104.62 29.54,189.19 88.63,253.71 59.1,64.53 136.21,96.61 231.34,96.61 64.5,0 123.23,-17.5 175.12,-52.86 52.25,-35 98.37,-88.22 138.36,-159.31l125.4 85.31c-48.29,88.21 -110.26,154.92 -185.57,199.76 -75.31,44.84 -162.51,67.08 -261.96,67.08 -147.01,0 -265.92,-49.22 -356.72,-147.28 -90.81,-98.42 -136.21,-227.47 -136.21,-386.77 0,-153.1 45.04,-278.51 135.12,-376.2 90.09,-97.33 205.75,-146.18 347.36,-146.18 142.69,0 255.84,46.3 339.43,138.89 83.24,92.59 125.03,219.08 125.03,379.12l0 33.17z"/>
   <polygon id="13" class="fil1" points="24611.89,6609.74 24434.61,6609.74 24434.61,6471.94 24611.89,6471.94 24611.89,6078.24 24780.52,6078.24 24780.52,6471.94 24957.81,6471.94 24957.81,6609.74 24780.52,6609.74 24780.52,7449.63 24611.89,7449.63 "/>
   <path id="14" class="fil1" d="M25115.27 6000.96c0,-33.17 11.9,-61.97 35.32,-86.03 23.78,-23.69 52.61,-35.72 86.48,-35.72 32.79,0 61.26,12.03 85.04,36.45 23.42,24.06 35.31,53.22 35.31,87.49 0,33.54 -11.53,62.33 -34.95,85.66 -23.07,23.7 -51.89,35.36 -85.4,35.36 -33.87,0 -62.7,-11.66 -86.48,-35.36 -23.42,-23.33 -35.32,-52.85 -35.32,-87.85zm38.92 1448.67l0 -977.69 166.48 0 0 977.69 -166.48 0z"/>
   <path id="15" class="fil1" d="M25567.13 7285.22l141.61 -95.87c26.66,51.77 60.17,90.41 101.25,116.29 40.72,25.88 89,39 144.5,39 54.05,0 98,-13.48 131.51,-40.46 33.51,-26.98 50.09,-62.7 50.09,-106.81 0,-33.9 -11.53,-62.34 -34.23,-85.3 -23.07,-22.6 -62.34,-43.75 -117.83,-62.7l-27.39 -9.84c-234.93,-81.66 -352.39,-184.46 -352.39,-307.67 0,-86.76 31.71,-157.85 94.76,-212.53 63.42,-55.04 145.57,-82.38 246.83,-82.38 83.95,0 155.66,16.77 215.47,50.67 59.81,33.9 102.69,81.65 128.64,143.63l-133.68 83.47c-19.82,-44.83 -49.01,-79.46 -87.2,-103.52 -38.56,-24.43 -82.87,-36.46 -133.68,-36.46 -48.65,0 -88.29,13.85 -118.91,41.19 -30.63,27.34 -45.77,62.34 -45.77,105.36 0,59.78 64.14,110.09 192.06,150.55 24.14,8.02 43.23,13.85 57.29,18.23 104.5,34.26 177.65,73.27 218.73,117.01 41.07,43.75 61.61,101.34 61.61,173.52 0,92.23 -32.43,167.32 -97.65,224.56 -64.86,57.23 -149.9,86.03 -254.76,86.03 -90.08,0 -166.46,-17.14 -229.53,-51.4 -62.69,-33.9 -113.49,-85.67 -151.33,-154.57z"/>
   <path id="16" class="fil1" d="M27894.13 7449.63l0 -575.6c0,-99.16 -19.82,-172.43 -59.09,-220.55 -39.27,-48.12 -99.82,-72.18 -181.24,-72.18 -44.33,0 -85.41,9.12 -122.88,27.34 -37.47,18.23 -69.54,43.75 -95.49,77.29 -18.74,25.51 -32.43,55.41 -41.08,89.67 -8.28,34.27 -12.61,90.41 -12.61,168.78l0 505.25 -159.98 0 0 -575.6c0,-99.16 -19.82,-172.43 -59.1,-220.55 -39.27,-48.12 -99.8,-72.18 -181.24,-72.18 -44.33,0 -85.76,9.12 -123.96,27.34 -38.19,18.23 -70.26,43.75 -96.56,77.29 -18.02,25.15 -31.35,53.95 -39.28,86.39 -8.28,32.81 -12.25,90.41 -12.25,172.06l0 505.25 -159.99 0 0 -977.69 162.15 0 0 150.92c40,-62.7 87.92,-109.36 143.41,-139.98 55.49,-30.62 119.64,-45.93 192.06,-45.93 78.19,0 144.85,16.77 199.62,50.67 54.77,33.9 96.21,83.48 124.67,148 41.44,-66.71 90.45,-116.65 147.02,-149.46 56.93,-32.81 122.51,-49.21 197.1,-49.21 107.74,0 191.7,30.62 252.23,91.86 60.53,61.24 90.8,146.54 90.8,255.54l0 665.28 -164.31 0z"/>
   <path id="17" class="fil1" d="M29023.05 7449.63l0 -977.69 147.38 0 0 203.78c44.31,-84.94 91.52,-145.45 141.6,-181.91 50.09,-36.45 110.99,-54.68 182.69,-54.68 19.82,0 38.92,1.46 57.29,4.74 18.02,3.28 36.4,8.02 54.77,14.22l-54.77 151.65c-19.09,-6.56 -37.11,-11.3 -54.05,-14.58 -16.93,-3.28 -33.15,-4.74 -48.64,-4.74 -87.2,0 -152.78,31.71 -196.39,95.51 -43.59,63.79 -65.57,159.66 -65.57,287.62l0 476.08 -164.31 0z"/>
   <path id="18" class="fil1" d="M30465.08 6850.33c-5.76,-86.03 -33.86,-152.37 -85.04,-199.04 -50.8,-46.66 -120.71,-69.99 -209.34,-69.99 -80.36,0 -147.38,24.43 -200.71,73.28 -53.69,48.48 -84.68,113.73 -92.96,195.75l588.05 0zm177.28 135.61l-765.33 0 0 14.95c0,104.62 29.54,189.19 88.63,253.71 59.1,64.53 136.21,96.61 231.34,96.61 64.5,0 123.23,-17.5 175.12,-52.86 52.25,-35 98.37,-88.22 138.36,-159.31l125.4 85.31c-48.29,88.21 -110.27,154.92 -185.57,199.76 -75.31,44.84 -162.51,67.08 -261.96,67.08 -147.01,0 -265.92,-49.22 -356.72,-147.28 -90.81,-98.42 -136.21,-227.47 -136.21,-386.77 0,-153.1 45.04,-278.51 135.12,-376.2 90.09,-97.33 205.75,-146.18 347.36,-146.18 142.69,0 255.84,46.3 339.43,138.89 83.24,92.59 125.03,219.08 125.03,379.12l0 33.17z"/>
   <path id="19" class="fil1" d="M30789.39 7285.22l141.6 -95.87c26.67,51.77 60.18,90.41 101.26,116.29 40.71,25.88 89,39 144.49,39 54.05,0 98.01,-13.48 131.52,-40.46 33.51,-26.98 50.08,-62.7 50.08,-106.81 0,-33.9 -11.52,-62.34 -34.23,-85.3 -23.06,-22.6 -62.33,-43.75 -117.82,-62.7l-27.39 -9.84c-234.93,-81.66 -352.4,-184.46 -352.4,-307.67 0,-86.76 31.71,-157.85 94.77,-212.53 63.41,-55.04 145.57,-82.38 246.82,-82.38 83.95,0 155.67,16.77 215.48,50.67 59.81,33.9 102.69,81.65 128.64,143.63l-133.68 83.47c-19.82,-44.83 -49.01,-79.46 -87.21,-103.52 -38.56,-24.43 -82.87,-36.46 -133.67,-36.46 -48.66,0 -88.29,13.85 -118.92,41.19 -30.63,27.34 -45.76,62.34 -45.76,105.36 0,59.78 64.14,110.09 192.06,150.55 24.13,8.02 43.23,13.85 57.29,18.23 104.5,34.26 177.64,73.27 218.72,117.01 41.07,43.75 61.61,101.34 61.61,173.52 0,92.23 -32.43,167.32 -97.65,224.56 -64.85,57.23 -149.9,86.03 -254.75,86.03 -90.08,0 -166.47,-17.14 -229.53,-51.4 -62.69,-33.9 -113.5,-85.67 -151.33,-154.57z"/>
   <path id="20" class="fil1" d="M32456.98 6850.33c-5.76,-86.03 -33.86,-152.37 -85.03,-199.04 -50.81,-46.66 -120.71,-69.99 -209.35,-69.99 -80.36,0 -147.38,24.43 -200.7,73.28 -53.7,48.48 -84.69,113.73 -92.97,195.75l588.05 0zm177.28 135.61l-765.33 0 0 14.95c0,104.62 29.55,189.19 88.64,253.71 59.1,64.53 136.21,96.61 231.33,96.61 64.5,0 123.24,-17.5 175.12,-52.86 52.25,-35 98.37,-88.22 138.36,-159.31l125.4 85.31c-48.29,88.21 -110.26,154.92 -185.56,199.76 -75.31,44.84 -162.52,67.08 -261.96,67.08 -147.02,0 -265.93,-49.22 -356.73,-147.28 -90.81,-98.42 -136.21,-227.47 -136.21,-386.77 0,-153.1 45.05,-278.51 135.12,-376.2 90.09,-97.33 205.75,-146.18 347.37,-146.18 142.68,0 255.83,46.3 339.42,138.89 83.24,92.59 125.03,219.08 125.03,379.12l0 33.17z"/>
   <path id="21" class="fil1" d="M33622.65 6970.63c0,-110.46 -29.9,-199.4 -89.35,-266.48 -59.46,-67.44 -136.93,-100.97 -232.77,-100.97 -99.1,0 -176.57,30.98 -232.05,92.95 -55.86,61.97 -83.61,148.37 -83.61,259.55 0,118.11 28.11,209.25 83.96,273.04 55.85,64.16 135.49,96.24 238.18,96.24 98.37,0 175.84,-30.99 231.69,-93.32 55.85,-62.34 83.95,-149.46 83.95,-261.01zm160 -498.69l0 977.69 -160 0 0 -177.16c-38.55,71.08 -88.27,125.4 -148.45,162.58 -60.17,37.55 -127.55,56.14 -202.14,56.14 -138.37,0 -250.43,-48.12 -335.11,-144.72 -84.68,-96.61 -127.19,-224.19 -127.19,-383.13 0,-160.76 41.07,-288.71 123.58,-383.86 82.16,-95.14 192.43,-142.53 330.42,-142.53 80.72,0 150.98,18.22 210.44,55.04 59.45,36.82 107.74,91.87 144.13,164.41l0 -184.46 164.32 0z"/>
   <path id="22" class="fil1" d="M34115.22 7449.63l0 -977.69 147.38 0 0 203.78c44.32,-84.94 91.52,-145.45 141.61,-181.91 50.08,-36.45 110.98,-54.68 182.69,-54.68 19.81,0 38.91,1.46 57.29,4.74 18.02,3.28 36.39,8.02 54.77,14.22l-54.77 151.65c-19.1,-6.56 -37.12,-11.3 -54.05,-14.58 -16.93,-3.28 -33.15,-4.74 -48.64,-4.74 -87.21,0 -152.79,31.71 -196.39,95.51 -43.59,63.79 -65.58,159.66 -65.58,287.62l0 476.08 -164.31 0z"/>
   <path id="23" class="fil1" d="M35613.47 7217.78l0 194.67c-43.6,26.24 -92.61,45.93 -147.38,59.05 -54.4,13.13 -113.49,19.69 -176.91,19.69 -149.18,0 -269.17,-47.76 -360.34,-143.63 -91.16,-95.87 -136.92,-221.64 -136.92,-377.66 0,-156.75 47.2,-284.7 141.61,-383.86 94.41,-99.52 215.12,-149.09 362.13,-149.09 53.33,0 105.58,5.83 156.74,17.13 51.17,11.3 99.09,28.07 144.14,50.31l0 179.71c-42.16,-27.7 -85.76,-48.84 -130.8,-63.43 -45.05,-14.58 -90.8,-21.87 -137.29,-21.87 -108.46,0 -195.66,34.27 -260.88,103.17 -65.58,68.53 -98.37,160.03 -98.37,273.76 0,100.61 32.79,184.46 98.73,252.26 65.94,67.44 148.46,101.34 247.55,101.34 50.08,0 99.09,-9.11 147.01,-26.97 47.92,-17.87 98.01,-45.93 150.98,-84.58z"/>
   <path id="24" class="fil1" d="M35843 7449.63l0 -1655.73 162.15 0 0 828.96c41.44,-62.7 91.53,-109.36 149.9,-139.98 58.38,-30.62 126.11,-45.93 202.5,-45.93 114.23,0 203.23,30.62 267.01,91.86 64.14,61.24 96.2,146.54 96.2,255.54l0 665.28 -168.63 0 0 -575.6c0,-99.16 -20.54,-172.43 -61.61,-220.55 -41.45,-48.12 -104.86,-72.18 -190.61,-72.18 -49.38,0 -94.41,9.12 -134.77,27.34 -40.36,18.23 -73.87,43.75 -100.89,77.29 -20.19,25.51 -34.95,55.04 -43.6,87.48 -9.01,32.81 -13.34,89.68 -13.34,170.97l0 505.25 -164.31 0z"/>
   <path id="25" class="fil1" d="M37732.93 6850.33c-5.76,-86.03 -33.86,-152.37 -85.03,-199.04 -50.81,-46.66 -120.71,-69.99 -209.35,-69.99 -80.36,0 -147.38,24.43 -200.71,73.28 -53.69,48.48 -84.68,113.73 -92.96,195.75l588.05 0zm177.28 135.61l-765.33 0 0 14.95c0,104.62 29.54,189.19 88.64,253.71 59.1,64.53 136.2,96.61 231.33,96.61 64.5,0 123.24,-17.5 175.12,-52.86 52.25,-35 98.37,-88.22 138.36,-159.31l125.4 85.31c-48.29,88.21 -110.26,154.92 -185.56,199.76 -75.31,44.84 -162.52,67.08 -261.97,67.08 -147.01,0 -265.92,-49.22 -356.72,-147.28 -90.81,-98.42 -136.21,-227.47 -136.21,-386.77 0,-153.1 45.04,-278.51 135.12,-376.2 90.09,-97.33 205.75,-146.18 347.37,-146.18 142.68,0 255.83,46.3 339.42,138.89 83.24,92.59 125.03,219.08 125.03,379.12l0 33.17z"/>
   <path id="26" class="fil1" d="M38161.37 7449.63l0 -977.69 147.38 0 0 203.78c44.31,-84.94 91.52,-145.45 141.61,-181.91 50.08,-36.45 110.98,-54.68 182.68,-54.68 19.82,0 38.92,1.46 57.3,4.74 18.02,3.28 36.39,8.02 54.77,14.22l-54.77 151.65c-19.1,-6.56 -37.12,-11.3 -54.05,-14.58 -16.94,-3.28 -33.16,-4.74 -48.65,-4.74 -87.2,0 -152.78,31.71 -196.38,95.51 -43.59,63.79 -65.58,159.66 -65.58,287.62l0 476.08 -164.31 0z"/>
   <path id="27" class="fil1" d="M38816.09 7285.22l141.6 -95.87c26.67,51.77 60.18,90.41 101.26,116.29 40.72,25.88 89,39 144.49,39 54.05,0 98.01,-13.48 131.52,-40.46 33.51,-26.98 50.08,-62.7 50.08,-106.81 0,-33.9 -11.52,-62.34 -34.23,-85.3 -23.06,-22.6 -62.33,-43.75 -117.82,-62.7l-27.39 -9.84c-234.93,-81.66 -352.4,-184.46 -352.4,-307.67 0,-86.76 31.71,-157.85 94.77,-212.53 63.42,-55.04 145.57,-82.38 246.83,-82.38 83.95,0 155.66,16.77 215.47,50.67 59.81,33.9 102.69,81.65 128.64,143.63l-133.68 83.47c-19.82,-44.83 -49.01,-79.46 -87.2,-103.52 -38.56,-24.43 -82.88,-36.46 -133.68,-36.46 -48.65,0 -88.29,13.85 -118.91,41.19 -30.64,27.34 -45.77,62.34 -45.77,105.36 0,59.78 64.14,110.09 192.06,150.55 24.14,8.02 43.23,13.85 57.29,18.23 104.5,34.26 177.64,73.27 218.73,117.01 41.07,43.75 61.61,101.34 61.61,173.52 0,92.23 -32.44,167.32 -97.65,224.56 -64.86,57.23 -149.9,86.03 -254.76,86.03 -90.08,0 -166.47,-17.14 -229.53,-51.4 -62.69,-33.9 -113.49,-85.67 -151.33,-154.57z"/>
  </g>
 </g>
</svg>
